PathFileType	4	(X/Y/Z)	C:\Users\WrightLab\Desktop\Jo\P2_Trial21.trc
DataRate	CameraRate	NumFrames	NumMarkers	Units	OrigDataRate	OrigDataStartFrame	OrigNumFrames
100.00	100.00	       43	19	mm	100.00	451	       600
Frame#	Time	Headset_Front			Headset_Back			Headset_Left			Headset_Right			Left_Shoulder			Right_Shoulder			Sternum			C7			Left Elbow			Right Elbow			Left Wrist			Right Wrist			Left ASIS			Right ASIS			S2			Left Knee			Right Knee			Left Ankle			Right Ankle			
		X1	Y1	Z1	X2	Y2	Z2	X3	Y3	Z3	X4	Y4	Z4	X5	Y5	Z5	X6	Y6	Z6	X7	Y7	Z7	X8	Y8	Z8	X9	Y9	Z9	X10	Y10	Z10	X11	Y11	Z11	X12	Y12	Z12	X13	Y13	Z13	X14	Y14	Z14	X15	Y15	Z15	X16	Y16	Z16	X17	Y17	Z17	X18	Y18	Z18	X19	Y19	Z19	

451	4.500	-46.42683	1469.59888	2068.22632	115.84373	1601.43115	2041.89307	73.92115	1707.77124	1912.95410				226.58893	1476.57373	1953.97253	122.88364	1058.15686	1975.92944	67.57693	1339.70630	1934.76636	288.09949	1224.39014	2169.51294	413.37183	1271.73547	2060.26758																			218.13904	504.50803	2036.46997	21.52271	549.18414	1837.33093	18.14564	1019.07642	1904.32568				
452	4.510	-51.05740	1473.00134	2073.88867	110.34898	1605.63342	2049.84180	69.60742	1711.87048	1918.20313				221.91800	1480.14758	1962.01575	118.75063	1062.22534	1983.30383	63.62951	1343.43823	1940.51099	277.67413	1230.72070	2179.85547	404.49731	1272.53735	2070.62598																			219.42358	506.32758	2039.84424	2.49723	558.16901	1854.61719	14.49300	1022.73981	1911.02246				
453	4.520	-55.68533	1476.26086	2079.60840	105.46384	1609.65405	2056.73413	64.79310	1715.74707	1925.39868				217.75270	1483.77222	1970.89551	114.28833	1066.76819	1991.38672	60.04408	1346.91394	1945.27942	267.20456	1237.48633	2190.70068	395.59973	1273.85547	2080.25977																			220.37048	507.97125	2042.91797	-14.70620	569.01141	1869.12012	10.98208	1026.77429	1917.09204				
454	4.530	-60.50998	1479.41260	2084.78589	100.70461	1613.15308	2062.89575	60.76643	1718.78235	1932.31055				213.25775	1487.67737	1980.06726	110.46636	1071.09241	1998.00317	55.73923	1350.87451	1951.88586	256.64047	1243.69690	2200.11011	386.98569	1273.78760	2090.24976																			220.76575	509.37955	2044.90649	-28.08452	580.16632	1881.26001	6.64721	1031.29358	1924.71985				
455	4.540	-65.48564	1482.57678	2090.53931	95.82154	1616.74707	2069.53540	56.74731	1721.75793	1938.07068				208.97002	1490.50220	1987.64868	106.81995	1074.91785	2004.91321	51.94021	1354.55481	1957.74158	246.01694	1249.57690	2209.68799	378.25406	1274.59387	2100.43237																			221.86128	511.81522	2047.50647	-40.13729	590.28632	1894.14343	2.52639	1037.26196	1934.26062				
456	4.550	-70.18363	1485.60071	2096.25708	91.11602	1620.09204	2076.48242	52.57492	1724.93823	1944.30652				204.45076	1493.45557	1995.44714	102.48015	1079.25659	2012.61890	48.37551	1357.48206	1963.28101	235.16051	1254.47461	2218.82373	369.46634	1275.43262	2111.36060																			222.88950	513.30377	2048.27295	-50.43066	598.05438	1908.88708	-1.01909	1041.66772	1941.15063				
457	4.560	-75.04607	1488.77124	2102.29517	86.21369	1623.12378	2083.70117	48.92163	1727.85730	1951.38330				200.99211	1496.70300	2003.86792	99.01446	1082.44629	2020.02271	44.42144	1360.57800	1969.44287	224.55522	1258.62183	2228.36548	360.38358	1276.35242	2123.12964																			223.44139	514.80505	2048.37793	-59.62881	604.92426	1923.64001	-5.23580	1045.90210	1948.46790				
458	4.570	-80.05885	1491.71594	2108.41821	81.68027	1625.82581	2090.45093	45.70479	1730.46289	1957.51208				196.71304	1499.09058	2012.37085	95.45856	1084.81775	2027.80835	40.58820	1363.39136	1975.47241	213.44597	1262.76111	2236.62061	351.47906	1277.14282	2134.54712																			227.27603	517.35077	2053.48340	-68.98575	615.18005	1928.87659	-9.06228	1047.32422	1952.54590				
459	4.580	-85.29041	1494.06592	2114.17725	77.18788	1628.02161	2096.98730	42.02145	1732.87683	1964.75903				192.40308	1500.96692	2019.73010	91.09653	1088.37683	2034.82739	36.77476	1366.14026	1981.38391	202.63632	1265.66479	2245.03174	342.35229	1277.51477	2146.13647																			226.56241	517.86505	2053.34595	-77.20755	622.42822	1940.58997	-13.65640	1052.09277	1962.83411				
460	4.590	-90.03554	1496.55408	2119.40137	72.63708	1630.41809	2103.68774	39.02571	1735.04102	1971.11853				187.59372	1503.41528	2028.51331	85.56588	1093.00317	2043.36792	32.64561	1368.27576	1987.96448	191.84425	1268.07520	2253.51172	333.90088	1276.86841	2156.71826																			226.13530	518.93793	2054.18018	-84.58298	628.67029	1951.65039	-17.39671	1054.35474	1969.16357				
461	4.600	-95.02206	1498.97839	2125.46729	67.77943	1632.14307	2110.98804	35.92057	1736.71997	1976.95276				183.73112	1505.47534	2037.26917				28.50747	1370.36023	1994.51440	180.11667	1269.80383	2261.98853	324.86444	1276.75134	2167.78882																			226.81853	519.08771	2053.72876	-91.59789	634.85486	1962.30017	-21.29704	1056.67786	1976.21057				
462	4.610	-99.71896	1500.63684	2131.15088	63.55378	1633.66187	2117.22144	32.62421	1738.03638	1983.27063				179.80714	1505.91052	2045.04639				24.24116	1371.85303	2001.19470	168.66113	1270.32910	2269.59448	314.84604	1276.47266	2179.25146																			228.82890	519.20105	2054.59277	-97.63575	638.80835	1971.04285	-25.03125	1058.57751	1982.45544				
463	4.620	-104.77922	1502.48865	2136.56274	58.80499	1634.55688	2124.48462							175.47069	1506.30530	2052.29224				20.13145	1372.74072	2007.50806	156.77824	1270.19458	2277.21216	305.91266	1275.36060	2189.33105																			229.89992	518.68707	2054.61133	-103.60462	641.79004	1981.02405	-29.24539	1059.12817	1988.71204				
464	4.630	-109.95773	1504.26978	2142.40723	54.57974	1635.83350	2130.65063							170.68126	1506.93445	2060.56567				16.15296	1372.99915	2014.26672	144.57275	1269.68225	2284.56958	295.72437	1274.33459	2201.53223																			231.07817	519.18542	2056.18677	-108.74235	644.29999	1988.77563	-33.74035	1058.15161	1992.98499				
465	4.640	-114.81677	1505.25696	2148.28052	49.90965	1636.39636	2137.94678							166.55038	1507.05591	2069.38208				11.54722	1373.30176	2021.24292	132.60271	1268.28479	2291.50464	286.17529	1272.49329	2213.01904																			232.68820	517.11700	2054.65088	-113.19373	644.45386	2002.66333	-37.72712	1060.04443	2002.41150				
466	4.650	-119.60074	1506.51111	2154.08032	45.33265	1636.79468	2144.84741							162.85178	1506.11768	2077.24072				7.89188	1373.09546	2027.73816	120.67924	1266.07739	2298.22461	276.07089	1270.94238	2223.05249																			233.80440	516.52435	2055.73193	-117.38367	644.13153	2010.94946	-42.16794	1059.84680	2008.05969				
467	4.660	-124.50032	1507.06580	2159.32520	41.16203	1636.73523	2151.45093							158.37184	1505.41284	2085.45752				3.51107	1372.33948	2034.53613	109.08172	1263.59302	2305.70386	266.20233	1268.57617	2233.90430																			236.14253	516.22870	2056.80005	-121.21726	644.99597	2017.54688	-46.51664	1059.25122	2015.06335				
468	4.670	-129.65117	1507.53857	2165.39966	37.04006	1636.37439	2157.81616							153.53999	1504.22717	2093.23682				-0.68177	1371.61475	2041.26404	97.46574	1260.13782	2312.96875	256.06265	1267.08594	2245.11865																			237.54362	514.97522	2056.61743	-125.56949	644.67072	2020.58167	-51.29173	1057.19507	2019.42236				
469	4.680	-134.45708	1508.02551	2171.17065	32.69540	1636.38013	2164.43213							150.03400	1502.13794	2100.29468				-4.55242	1370.60632	2047.97668	85.40886	1256.32605	2320.06396	246.39046	1263.97668	2254.80469																						-127.71967	641.05389	2033.43225							
470	4.690	-139.38496	1508.21191	2176.58765	28.33623	1635.56445	2171.53516							145.87062	1500.42700	2109.07031				-8.72476	1369.40234	2054.88550	73.54887	1252.36328	2327.67993	236.23126	1261.49561	2266.40356																						-130.22729	638.25470	2038.28918							
471	4.700	-144.27994	1508.04871	2182.25952	23.66482	1635.33118	2178.43408							142.04077	1498.79517	2116.75000				-12.82441	1367.34692	2061.49561	62.33669	1247.22461	2335.03833	226.93146	1258.82617	2275.90552																						-131.21312	632.46576	2043.73621							
472	4.710	-148.79088	1507.93616	2186.73511	19.90236	1633.81799	2184.71362							137.55499	1496.86755	2124.75513				-16.84043	1365.72803	2067.91113	51.58567	1241.28857	2343.03613	216.98145	1255.85510	2286.42041																						-130.89896	625.49683	2048.23413							
473	4.720	-153.88364	1507.93250	2192.44531	15.71163	1632.84961	2190.99658							133.12666	1494.55762	2132.11987				-21.01408	1364.13599	2074.62329	40.96637	1235.67114	2351.22876	208.03023	1252.89233	2296.72388																						-129.38106	617.32568	2052.22852							
474	4.730	-158.81007	1507.46924	2197.38525	11.28237	1631.94849	2197.58154													-25.36819	1362.95264	2081.29272				198.95943	1249.64221	2305.75781																						-127.91367	608.87439	2047.78210							
475	4.740	-163.55722	1507.37280	2202.27051	6.64912	1630.95032	2204.57495													-29.81380	1361.36414	2088.37280				190.44753	1246.13245	2314.81885																						-125.22295	599.69110	2049.93750							
476	4.750	-168.39915	1506.96851	2206.88989	2.82067	1629.67053	2210.03101													-34.53357	1359.92822	2095.40186				181.90161	1243.07837	2324.46606																						-123.06445	590.52802	2049.14990							
477	4.760	-173.12946	1506.74170	2211.36987	-1.41726	1628.96887	2216.13232													-39.50212	1358.88000	2102.48657				173.58676	1239.13867	2333.07593																						-122.50695	583.91443	2054.74731							
478	4.770	-177.79161	1506.60034	2215.56958	-5.84564	1628.28833	2222.30664													-44.52010	1358.04871	2109.23438				166.23227	1235.77490	2340.93164																						-124.02320	582.91260	2061.03589							
479	4.780	-182.60611	1506.63379	2219.74854	-10.14544	1627.59534	2228.13232													-50.15858	1357.27209	2115.94849				159.02159	1231.82361	2349.30713																						-124.39986	583.46997	2069.25903							
480	4.790	-187.27254	1507.06506	2224.31519	-14.17137	1627.07739	2233.26123													-55.67805	1356.44861	2122.48169				152.22536	1227.47107	2356.85156																						-124.91089	584.62549	2079.04370							
481	4.800	-192.42157	1508.26538	2228.29346	-18.49961	1626.80566	2238.63867													-61.25726	1355.87781	2129.37378				145.78346	1223.48792	2363.63647																						-125.31971	586.04114	2087.72510							
482	4.810	-197.48506	1509.33215	2232.62231	-23.05754	1626.51331	2244.03125													-66.25597	1356.41504	2136.40186				139.37294	1219.26660	2370.91040																						-125.75659	586.37408	2096.65723							
483	4.820	-202.68971	1510.78345	2236.33545	-27.07135	1626.48962	2248.80176													-71.85611	1356.04919	2142.32324				133.68828	1214.65637	2376.67920																						-126.56821	586.06927	2105.27295							
484	4.830	-208.21402	1513.23560	2240.88232	-31.33440	1626.67102	2253.38501													-77.63355	1356.45679	2148.00439				127.88268	1209.80945	2382.75171																						-127.94932	584.96625	2112.68677							
485	4.840	-213.89865	1515.61914	2244.91602	-35.67494	1627.62805	2257.84839													-82.85758	1356.68347	2154.33398				122.34998	1205.53308	2388.61548																						-129.73190	582.76312	2120.83740							
486	4.850	-219.28868	1518.40906	2249.40869	-39.98407	1627.88257	2262.28149													-88.39889	1357.42664	2161.06055				117.23209	1200.06226	2394.00586																						-132.40598	580.77209	2127.99243							
487	4.860	-225.06128	1521.33215	2253.24976	-44.23002	1629.04333	2266.33911													-94.27863	1357.19397	2166.53687				112.42519	1195.00427	2398.42334																															
488	4.870	-230.59627	1524.81262	2257.08765	-48.52449	1630.28821	2270.15454													-99.61790	1358.52112	2172.48657				106.70154	1189.52393	2403.38501																															
489	4.880	-236.41489	1528.96655	2261.45093	-53.27761	1632.38831	2274.24438													-104.32340	1358.95740	2178.63647				101.77736	1184.44238	2406.98682																															
490	4.890	-242.67026	1532.94373	2264.98950	-57.94520	1633.81287	2278.49487													-110.21315	1360.56042	2185.19751				96.60772	1179.47534	2410.35840																															
491	4.900	-248.41882	1536.89001	2269.34546	-62.78879	1635.86243	2282.19751													-115.24836	1361.69299	2190.89307				91.30132	1176.01099	2414.65649																															
492	4.910	-254.38155	1541.02612	2273.31250	-67.50330	1637.32312	2286.02368													-120.91922	1362.69946	2197.57153				86.65781	1172.51941	2417.61353																															
493	4.920	-260.18124	1544.44458	2276.16797	-72.09321	1638.98547	2289.56836													-126.61973	1364.16174	2205.14600				82.11115	1170.65649	2420.65112																															
